<svg width="22" height="22" viewBox="0 0 22 22" fill="none" xmlns="http://www.w3.org/2000/svg">
  <rect width="22" height="22" rx="11" fill="#06210a" fill-opacity="0.17"/>
  <path d="M11 15.5C9.74375 15.5 8.67969 15.0641 7.80781 14.1922C6.93594 13.3203 6.5 12.2563 6.5 11C6.5 9.74376 6.93594 8.6797 7.80781 7.80782C8.67969 6.93594 9.74375 6.5 11 6.5C11.6469 6.5 12.2656 6.6335 12.8562 6.9005C13.4469 7.1675 13.9531 7.54963 14.375 8.04688V7.0625C14.375 6.90313 14.429 6.76944 14.537 6.66144C14.645 6.55344 14.7785 6.49963 14.9375 6.5C15.0969 6.5 15.2306 6.554 15.3386 6.662C15.4466 6.77 15.5004 6.9035 15.5 7.0625V9.87501C15.5 10.0344 15.446 10.1681 15.338 10.2761C15.23 10.3841 15.0965 10.4379 14.9375 10.4375H12.125C11.9656 10.4375 11.8319 10.3835 11.7239 10.2755C11.6159 10.1675 11.5621 10.034 11.5625 9.87501C11.5625 9.71564 11.6165 9.58195 11.7245 9.47395C11.8325 9.36595 11.966 9.31213 12.125 9.31251H13.925C13.625 8.78751 13.2147 8.37501 12.6942 8.07501C12.1737 7.77501 11.609 7.62501 11 7.62501C10.0625 7.62501 9.26562 7.95313 8.60937 8.60938C7.95312 9.26564 7.625 10.0625 7.625 11C7.625 11.9375 7.95312 12.7344 8.60937 13.3906C9.26562 14.0469 10.0625 14.375 11 14.375C11.6469 14.375 12.2446 14.2038 12.7932 13.8615C13.3419 13.5191 13.7519 13.0621 14.0234 12.4906C14.0703 12.3875 14.1477 12.3007 14.2557 12.2302C14.3637 12.1597 14.4738 12.1246 14.5859 12.125C14.8016 12.125 14.9634 12.2 15.0714 12.35C15.1794 12.5 15.191 12.6688 15.1062 12.8563C14.75 13.6531 14.2016 14.2931 13.4609 14.7761C12.7203 15.2591 11.9 15.5004 11 15.5Z" fill="#00e3a7"/>
</svg>
