<svg width="19" height="18" viewBox="0 0 19 18" fill="none" xmlns="http://www.w3.org/2000/svg">
  <path d="M0.5 1C0.5 0.447715 0.947715 0 1.5 0H3.5C4.05228 0 4.5 0.447715 4.5 1V3C4.5 3.55228 4.05228 4 3.5 4H1.5C0.947715 4 0.5 3.55228 0.5 3V1Z" fill="#00e3a7"/>
  <path d="M0.5 15C0.5 14.4477 0.947715 14 1.5 14H3.5C4.05228 14 4.5 14.4477 4.5 15V17C4.5 17.5523 4.05228 18 3.5 18H1.5C0.947715 18 0.5 17.5523 0.5 17V15Z" fill="#00e3a7"/>
  <path d="M0.5 8C0.5 7.44772 0.947715 7 1.5 7H3.5C4.05228 7 4.5 7.44772 4.5 8V10C4.5 10.5523 4.05228 11 3.5 11H1.5C0.947715 11 0.5 10.5523 0.5 10V8Z" fill="#00e3a7"/>
  <path d="M6.5 1C6.5 0.447715 6.94772 0 7.5 0H17.5C18.0523 0 18.5 0.447715 18.5 1V3C18.5 3.55228 18.0523 4 17.5 4H7.5C6.94772 4 6.5 3.55228 6.5 3V1Z" fill="#00e3a7"/>
  <path d="M6.5 15C6.5 14.4477 6.94772 14 7.5 14H17.5C18.0523 14 18.5 14.4477 18.5 15V17C18.5 17.5523 18.0523 18 17.5 18H7.5C6.94772 18 6.5 17.5523 6.5 17V15Z" fill="#00e3a7"/>
  <path d="M6.5 8C6.5 7.44772 6.94772 7 7.5 7H17.5C18.0523 7 18.5 7.44772 18.5 8V10C18.5 10.5523 18.0523 11 17.5 11H7.5C6.94772 11 6.5 10.5523 6.5 10V8Z" fill="#00e3a7"/>
</svg>
