<svg width="19" height="18" viewBox="0 0 19 18" fill="none" xmlns="http://www.w3.org/2000/svg">
  <path d="M0.5 2.22222C0.5 0.994923 1.49492 0 2.72222 0H6.27778C7.50508 0 8.5 0.994923 8.5 2.22222V5.77778C8.5 7.00508 7.50508 8 6.27778 8H2.72222C1.49492 8 0.5 7.00508 0.5 5.77778V2.22222Z" fill="#00e3a7"/>
  <path d="M0.5 12.2222C0.5 10.9949 1.49492 10 2.72222 10H6.27778C7.50508 10 8.5 10.9949 8.5 12.2222V15.7778C8.5 17.0051 7.50508 18 6.27778 18H2.72222C1.49492 18 0.5 17.0051 0.5 15.7778V12.2222Z" fill="#00e3a7"/>
  <path d="M10.5 2.22222C10.5 0.994923 11.4949 0 12.7222 0H16.2778C17.5051 0 18.5 0.994923 18.5 2.22222V5.77778C18.5 7.00508 17.5051 8 16.2778 8H12.7222C11.4949 8 10.5 7.00508 10.5 5.77778V2.22222Z" fill="#00e3a7"/>
  <path d="M10.5 12.2222C10.5 10.9949 11.4949 10 12.7222 10H16.2778C17.5051 10 18.5 10.9949 18.5 12.2222V15.7778C18.5 17.0051 17.5051 18 16.2778 18H12.7222C11.4949 18 10.5 17.0051 10.5 15.7778V12.2222Z" fill="#00e3a7"/>
</svg>
