<svg width="144" height="144" viewBox="0 0 144 144" fill="none" xmlns="http://www.w3.org/2000/svg">
  <g filter="url(#filter0_d_67_829)">
    <rect x="32" y="13" width="80" height="80" rx="20" fill="#E95230"/>
    <path d="M55.7724 75.0965C53.0067 73.857 50.9218 71.3729 50.2288 68.3583C51.4285 71.0737 53.3485 73.4025 55.7724 75.0965Z" fill="#F8E3DF"/>
    <path d="M76.31 75.9823L85.119 76C90.5309 76.0109 94.9284 71.6336 94.941 66.2231L95 40.8673C95.0126 35.4568 90.6355 31.0619 85.2236 31.051L59.8611 31C54.4492 30.9891 50.0517 35.3664 50.0391 40.7769L50.0318 43.9144C54.3102 40.6869 59.5426 38.9779 64.9009 39.0579C77.6417 39.0836 85.7382 48.0185 85.7064 59.2614C85.6883 67.0712 82.029 72.941 76.31 75.9823Z" fill="#F8E3DF"/>
    <path d="M50.0183 49.7184L50 57.6013C52.3085 50.9591 58.6306 47.9584 63.9209 48.0252C70.5355 48.1153 75.6195 53.1111 75.6513 58.7617C75.6388 64.1518 73.4134 68.1066 67.317 69.0757C63.9924 69.6234 58.8002 67.6464 59.0217 62.6276C59.1495 60.0414 61.163 58.5827 63.4633 58.6922C61.1951 61.718 64.1817 63.9396 66.2997 63.4944C67.3612 63.2612 68.3093 62.6677 68.9827 61.8148C69.6562 60.9619 70.0134 59.9021 69.9936 58.8158C69.998 56.9111 68.2105 53.8266 63.761 53.9338C58.2605 54.0501 54.7874 58.0043 54.6543 62.8997C54.5069 69.0425 60.2637 73.1313 66.1965 73.1919C74.8756 73.3199 80.0631 67.6311 80.0488 59.2837C80.0664 51.7229 73.9892 44.4383 64.8892 44.1034C58.4303 43.8695 53.4004 46.2248 50.0183 49.7184Z" fill="#F8E3DF"/>
  </g>
  <defs>
    <filter id="filter0_d_67_829" x="0" y="0" width="144" height="144" filterUnits="userSpaceOnUse" color-interpolation-filters="sRGB">
      <feFlood flood-opacity="0" result="BackgroundImageFix"/>
      <feColorMatrix in="SourceAlpha" type="matrix" values="0 0 0 0 0 0 0 0 0 0 0 0 0 0 0 0 0 0 127 0" result="hardAlpha"/>
      <feOffset dy="19"/>
      <feGaussianBlur stdDeviation="16"/>
      <feComposite in2="hardAlpha" operator="out"/>
      <feColorMatrix type="matrix" values="0 0 0 0 0.913725 0 0 0 0 0.321569 0 0 0 0 0.188235 0 0 0 0.2 0"/>
      <feBlend mode="normal" in2="BackgroundImageFix" result="effect1_dropShadow_67_829"/>
      <feBlend mode="normal" in="SourceGraphic" in2="effect1_dropShadow_67_829" result="shape"/>
    </filter>
  </defs>
</svg>
