<svg width="144" height="144" viewBox="0 0 144 144" fill="none" xmlns="http://www.w3.org/2000/svg">
  <g filter="url(#filter0_d_67_664)">
    <rect x="32" y="13" width="80" height="80" rx="20" fill="#3355CE"/>
    <path d="M72.0952 31C59.8889 30.9872 49.9945 40.922 50 52.956C50.0055 65.1989 60.0374 74.9651 71.9595 74.9999C83.9403 75.0366 94.0639 65.2723 93.9997 53.0036C93.9832 49.9511 93.028 43.1568 90.6264 43.331C86.9964 43.5968 86.6682 50.8843 86.2686 53.2438C85.5041 57.7538 83.8009 62.5571 80.8548 66.0588C77.4081 70.3836 72.2437 72.7211 66.8079 71.8484C60.2996 70.8144 56.0041 65.8388 54.5613 62.3133C53.1808 59.1544 52.6638 54.6829 54.433 50.7193C56.5596 45.6483 61.2786 42.2273 65.9462 40.482C69.6239 38.9658 73.4683 38.3718 75.7673 37.9612C80.38 37.0445 81.0015 35.279 80.9263 34.0213C80.8988 33.5593 80.457 32.694 79.4871 32.2925C77.5548 31.4932 74.3245 31.0018 72.0952 31ZM81.4415 33.4603C81.6963 34.19 81.6028 35.0187 81.1701 35.763C80.5743 36.7897 79.3881 37.688 77.6923 38.128C74.693 38.9127 72.2363 39.1437 69.7357 39.888C67.3304 40.603 63.5079 41.7543 59.9898 44.5666C59.4984 46.1103 59.3646 48.0353 59.3133 49.447C59.5883 58.6393 67.6677 65.7343 76.1248 65.3639C77.6886 65.2961 79.6466 64.8854 81.4635 64.1173C82.4916 62.5775 83.3445 60.9276 84.0063 59.1984L84.0099 59.1948V59.1911C84.7873 57.3028 85.1209 55.8251 85.4766 54.0706C86.0633 51.2015 85.8469 48.7906 87.3319 45.3476C87.7921 44.2806 88.6336 43.3071 89.6382 42.88C90.0966 42.6875 90.5952 42.6361 91.0866 42.748C89.4549 38.2178 85.3739 34.817 81.4415 33.4603Z" fill="#B6C6FF"/>
  </g>
  <defs>
    <filter id="filter0_d_67_664" x="0" y="0" width="144" height="144" filterUnits="userSpaceOnUse" color-interpolation-filters="sRGB">
      <feFlood flood-opacity="0" result="BackgroundImageFix"/>
      <feColorMatrix in="SourceAlpha" type="matrix" values="0 0 0 0 0 0 0 0 0 0 0 0 0 0 0 0 0 0 127 0" result="hardAlpha"/>
      <feOffset dy="19"/>
      <feGaussianBlur stdDeviation="16"/>
      <feComposite in2="hardAlpha" operator="out"/>
      <feColorMatrix type="matrix" values="0 0 0 0 0.2 0 0 0 0 0.333333 0 0 0 0 0.807843 0 0 0 0.2 0"/>
      <feBlend mode="normal" in2="BackgroundImageFix" result="effect1_dropShadow_67_664"/>
      <feBlend mode="normal" in="SourceGraphic" in2="effect1_dropShadow_67_664" result="shape"/>
    </filter>
  </defs>
</svg>
