<svg width="144" height="144" viewBox="0 0 144 144" fill="none" xmlns="http://www.w3.org/2000/svg">
  <g filter="url(#filter0_d_67_917)">
    <rect x="32" y="13" width="80" height="80" rx="20" fill="#E97330"/>
    <path d="M72.1045 54.6159C72.2041 52.8923 73.0535 51.3713 74.3361 50.2941C75.6819 49.1826 77.3794 48.5797 79.1288 48.5921C80.9705 48.5921 82.6626 49.2384 83.9193 50.2941C85.202 51.3713 86.0491 52.8923 86.1466 54.6137C86.2441 56.3868 85.5291 58.0307 84.2725 59.2522C82.8883 60.5667 81.0427 61.2918 79.1288 61.2731C77.2136 61.292 75.3665 60.567 73.9808 59.2522C72.7241 58.0307 72.007 56.3868 72.1045 54.6159ZM60.9244 58.0996C60.9374 58.7761 61.1541 60.086 61.4791 61.1115C62.1807 63.3178 63.3587 65.345 64.9306 67.0513C66.6164 68.8943 68.674 70.3633 70.9691 71.3623C73.467 72.4572 76.1693 73.0152 78.8991 72.9997C81.6285 73.005 84.3283 72.4383 86.8227 71.3365C89.1162 70.3279 91.1717 68.8528 92.8568 67.006C94.4262 65.2941 95.6031 63.2639 96.3062 61.0555C96.9823 58.9159 97.1673 56.6528 96.8478 54.4327C96.5436 52.3058 95.7937 50.2661 94.6465 48.4456C93.5838 46.7521 92.2248 45.2614 90.6338 44.044H90.6382L74.3925 31.6409L74.3491 31.6086C73.2831 30.7943 71.4913 30.7986 70.3191 31.6129C69.1339 32.4359 68.9996 33.7997 70.0526 34.6615L70.0504 34.6636L76.8235 40.1424L56.1751 40.1639H56.1469C54.4396 40.1661 52.7994 41.2799 52.4744 42.6889C52.1407 44.1216 53.2978 45.3109 55.0744 45.3173V45.3216L65.5394 45.3001L46.8627 59.556L46.7891 59.6099C45.0276 60.9499 44.4599 63.1819 45.5692 64.5931C46.6959 66.0301 49.0901 66.0322 50.8711 64.6017L61.0631 56.3093C61.0631 56.3093 60.9114 57.4296 60.9244 58.0996ZM87.1195 61.8505C85.0178 63.9791 82.0798 65.1855 78.897 65.1898C75.712 65.1985 72.7718 64.0006 70.6701 61.8763C69.6777 60.8857 68.9121 59.6937 68.4254 58.3818C67.9795 57.1476 67.8033 55.8329 67.9086 54.5256C68.014 53.2182 68.3985 51.9483 69.0364 50.8004C69.6711 49.6657 70.5192 48.6629 71.5346 47.8466C73.5756 46.192 76.1735 45.2979 78.8926 45.2936C81.614 45.2893 84.2118 46.1769 86.255 47.8251C87.295 48.6675 88.14 49.665 88.751 50.7702C89.3835 51.9028 89.7688 53.1551 89.882 54.4457C89.9968 55.7682 89.8201 57.0997 89.3642 58.3474C88.8774 59.6612 88.1105 60.8558 87.1195 61.8505Z" fill="#FFF0E8"/>
  </g>
  <defs>
    <filter id="filter0_d_67_917" x="0" y="0" width="144" height="144" filterUnits="userSpaceOnUse" color-interpolation-filters="sRGB">
      <feFlood flood-opacity="0" result="BackgroundImageFix"/>
      <feColorMatrix in="SourceAlpha" type="matrix" values="0 0 0 0 0 0 0 0 0 0 0 0 0 0 0 0 0 0 127 0" result="hardAlpha"/>
      <feOffset dy="19"/>
      <feGaussianBlur stdDeviation="16"/>
      <feComposite in2="hardAlpha" operator="out"/>
      <feColorMatrix type="matrix" values="0 0 0 0 0.913725 0 0 0 0 0.45098 0 0 0 0 0.188235 0 0 0 0.2 0"/>
      <feBlend mode="normal" in2="BackgroundImageFix" result="effect1_dropShadow_67_917"/>
      <feBlend mode="normal" in="SourceGraphic" in2="effect1_dropShadow_67_917" result="shape"/>
    </filter>
  </defs>
</svg>
