<svg width="15" height="14" viewBox="0 0 15 14" fill="none" xmlns="http://www.w3.org/2000/svg">
  <path d="M7.5 10.1281C7.375 10.1281 7.25781 10.11 7.14844 10.0739C7.03906 10.0377 6.9375 9.97558 6.84375 9.8875L3.46875 6.7375C3.29688 6.57708 3.21094 6.37292 3.21094 6.125C3.21094 5.87708 3.29688 5.67292 3.46875 5.5125C3.64062 5.35208 3.86344 5.26838 4.13719 5.26138C4.41094 5.25438 4.63344 5.33079 4.80469 5.49063L6.5625 7.13125V0.875003C6.5625 0.627086 6.6525 0.419128 6.8325 0.251128C7.0125 0.0831282 7.235 -0.000580305 7.5 3.02768e-06C7.76562 3.02768e-06 7.98844 0.0840031 8.16844 0.252003C8.34844 0.420003 8.43812 0.62767 8.4375 0.875003V7.13125L10.1953 5.49063C10.3672 5.33021 10.59 5.2535 10.8637 5.2605C11.1375 5.2675 11.36 5.3515 11.5312 5.5125C11.7031 5.67292 11.7891 5.87708 11.7891 6.125C11.7891 6.37292 11.7031 6.57708 11.5312 6.7375L8.15625 9.8875C8.0625 9.975 7.96094 10.0371 7.85156 10.0739C7.74219 10.1106 7.625 10.1287 7.5 10.1281ZM1.875 14C1.35938 14 0.917814 13.8285 0.550314 13.4855C0.182814 13.1425 -0.000623408 12.7307 1.59168e-06 12.25V10.5C1.59168e-06 10.2521 0.0900017 10.0441 0.270002 9.87612C0.450002 9.70813 0.672501 9.62442 0.937501 9.625C1.20313 9.625 1.42594 9.709 1.60594 9.877C1.78594 10.045 1.87563 10.2527 1.875 10.5V12.25H13.125V10.5C13.125 10.2521 13.215 10.0441 13.395 9.87612C13.575 9.70813 13.7975 9.62442 14.0625 9.625C14.3281 9.625 14.5509 9.709 14.7309 9.877C14.9109 10.045 15.0006 10.2527 15 10.5V12.25C15 12.7312 14.8162 13.1434 14.4487 13.4864C14.0812 13.8294 13.64 14.0006 13.125 14H1.875Z" fill="#0b150e"/>
</svg>
