<svg width="255" height="255" viewBox="0 0 255 255" fill="none" xmlns="http://www.w3.org/2000/svg">
<!--  <rect width="255" height="255" rx="40" fill="#01020E"/>-->
  <rect width="255" height="255" rx="40" fill="url(#paint0_linear_65_616)" fill-opacity="0.2"/>
  <mask id="mask0_65_616" style="mask-type:alpha" maskUnits="userSpaceOnUse" x="0" y="0" width="255" height="255">
    <rect width="255" height="255" rx="40" fill="#EBEBEB"/>
  </mask>
  <g mask="url(#mask0_65_616)">
    <path d="M33.7218 225.465C34.0789 228.213 35.5462 233.448 37.3246 237.477C41.1603 246.143 46.8458 253.867 53.9832 260.108C61.6436 266.855 70.6423 271.913 80.3923 274.952C91.007 278.29 102.208 279.35 113.263 278.065C124.326 276.864 135.011 273.348 144.623 267.746C153.463 262.613 161.129 255.688 167.127 247.416C172.716 239.745 176.572 230.954 178.427 221.65C180.204 212.638 179.936 203.343 177.643 194.45C175.453 185.928 171.496 177.962 166.029 171.065C160.96 164.648 154.783 159.189 147.788 154.946L147.806 154.944L76.3938 111.734L76.2037 111.622C71.5176 108.785 64.2586 109.605 59.875 113.445C55.4427 117.326 55.5119 122.937 60.1667 125.973L60.1588 125.983L90.0696 145.25L6.40706 154.586L6.29292 154.599C-0.62466 155.372 -6.76991 160.641 -7.45299 166.521C-8.16051 172.503 -2.93701 176.825 4.2654 176.056L4.26734 176.073L46.6645 171.298L-22.6044 237.692L-22.8786 237.944C-29.4138 244.187 -30.7099 253.527 -25.5798 258.774C-20.3677 264.119 -10.665 263.055 -4.09151 256.434L33.4783 218.116C33.4783 218.116 33.3677 222.744 33.7218 225.465ZM141.558 229.001C133.999 238.606 122.637 244.833 109.741 246.276C96.8383 247.738 84.3851 244.179 74.9129 236.473C70.4459 232.885 66.807 228.376 64.2448 223.254C61.8822 218.43 60.5768 213.158 60.4156 207.789C60.2544 202.421 61.241 197.079 63.3098 192.121C65.3711 187.218 68.3567 182.756 72.1041 178.979C79.6303 171.33 89.7552 166.527 100.772 165.291C111.798 164.055 122.724 166.504 131.745 172.298C136.338 175.261 140.211 178.943 143.184 183.168C146.257 187.495 148.382 192.42 149.421 197.622C150.481 202.954 150.364 208.453 149.078 213.736C147.697 219.302 145.127 224.508 141.558 229.001Z" fill="#DE6622"/>
    <path d="M77.4587 206.277C77.0872 199.217 79.8445 192.646 84.5576 187.686C89.5109 182.559 96.1184 179.345 103.213 178.612C110.676 177.787 117.824 179.66 123.391 183.394C129.073 187.204 133.191 193.016 134.36 199.979C135.553 207.153 133.395 214.164 128.852 219.7C123.835 225.67 116.682 229.448 108.918 230.229C101.166 231.164 93.3548 229.04 87.148 224.309C81.5061 219.9 77.8604 213.53 77.4587 206.277Z" fill="#221EE8"/>
  </g>
  <path d="M29.944 49V32.536H38.68C39.592 32.536 40.392 32.704 41.08 33.04C41.768 33.36 42.304 33.824 42.688 34.432C43.088 35.04 43.288 35.752 43.288 36.568C43.288 37.192 43.168 37.76 42.928 38.272C42.704 38.784 42.384 39.216 41.968 39.568C41.568 39.92 41.112 40.184 40.6 40.36V40.456C41.192 40.584 41.72 40.824 42.184 41.176C42.664 41.512 43.04 41.96 43.312 42.52C43.6 43.064 43.744 43.72 43.744 44.488C43.744 45.528 43.512 46.384 43.048 47.056C42.6 47.728 42 48.224 41.248 48.544C40.496 48.848 39.64 49 38.68 49H29.944ZM32.632 46.696H38.464C39.2 46.696 39.8 46.504 40.264 46.12C40.744 45.72 40.984 45.08 40.984 44.2C40.984 43.672 40.88 43.224 40.672 42.856C40.48 42.472 40.184 42.184 39.784 41.992C39.384 41.784 38.88 41.68 38.272 41.68H32.632V46.696ZM32.632 39.424H38.056C38.568 39.424 39.008 39.328 39.376 39.136C39.744 38.944 40.024 38.672 40.216 38.32C40.424 37.968 40.528 37.576 40.528 37.144C40.528 36.36 40.312 35.784 39.88 35.416C39.464 35.032 38.912 34.84 38.224 34.84H32.632V39.424ZM46.5796 49V31.648H49.0756V49H46.5796ZM57.6503 49.288C56.3543 49.288 55.2663 49.056 54.3863 48.592C53.5223 48.112 52.8663 47.384 52.4183 46.408C51.9703 45.432 51.7463 44.192 51.7463 42.688C51.7463 41.168 51.9703 39.928 52.4183 38.968C52.8663 37.992 53.5303 37.272 54.4103 36.808C55.2903 36.328 56.3863 36.088 57.6983 36.088C58.8983 36.088 59.8983 36.32 60.6983 36.784C61.5143 37.232 62.1303 37.92 62.5463 38.848C62.9623 39.776 63.1703 40.944 63.1703 42.352V43.312H54.3143C54.3463 44.208 54.4823 44.96 54.7223 45.568C54.9623 46.16 55.3223 46.6 55.8023 46.888C56.2983 47.16 56.9223 47.296 57.6743 47.296C58.1383 47.296 58.5543 47.24 58.9223 47.128C59.2903 47 59.6023 46.824 59.8583 46.6C60.1143 46.36 60.3143 46.08 60.4583 45.76C60.6023 45.424 60.6743 45.048 60.6743 44.632H63.1223C63.1223 45.384 62.9943 46.048 62.7383 46.624C62.4823 47.2 62.1063 47.688 61.6103 48.088C61.1303 48.472 60.5543 48.768 59.8823 48.976C59.2103 49.184 58.4663 49.288 57.6503 49.288ZM54.3623 41.488H60.5543C60.5543 40.864 60.4823 40.344 60.3383 39.928C60.2103 39.496 60.0183 39.144 59.7623 38.872C59.5063 38.6 59.2023 38.408 58.8503 38.296C58.4983 38.168 58.0983 38.104 57.6503 38.104C56.9783 38.104 56.4023 38.224 55.9223 38.464C55.4583 38.704 55.0983 39.08 54.8423 39.592C54.5863 40.088 54.4263 40.72 54.3623 41.488ZM65.8274 49V36.376H67.8914L68.1074 38.176H68.2754C68.5794 37.712 68.9394 37.328 69.3554 37.024C69.7714 36.72 70.2274 36.488 70.7234 36.328C71.2354 36.168 71.7954 36.088 72.4034 36.088C73.2034 36.088 73.9074 36.232 74.5154 36.52C75.1234 36.792 75.5954 37.24 75.9314 37.864C76.2834 38.488 76.4594 39.328 76.4594 40.384V49H73.9634V40.768C73.9634 40.288 73.8994 39.888 73.7714 39.568C73.6594 39.248 73.4914 38.992 73.2674 38.8C73.0434 38.608 72.7794 38.472 72.4754 38.392C72.1714 38.312 71.8354 38.272 71.4674 38.272C70.8914 38.272 70.3634 38.416 69.8834 38.704C69.4194 38.976 69.0434 39.36 68.7554 39.856C68.4674 40.352 68.3234 40.936 68.3234 41.608V49H65.8274ZM84.0492 49.288C83.0252 49.288 82.1372 49.056 81.3852 48.592C80.6332 48.128 80.0492 47.408 79.6332 46.432C79.2332 45.456 79.0332 44.192 79.0332 42.64C79.0332 41.12 79.2412 39.88 79.6572 38.92C80.0732 37.96 80.6492 37.248 81.3852 36.784C82.1212 36.32 82.9692 36.088 83.9292 36.088C84.4892 36.088 85.0092 36.152 85.4892 36.28C85.9692 36.408 86.3932 36.608 86.7612 36.88C87.1452 37.152 87.4652 37.496 87.7212 37.912H87.8892V31.648H90.3852V49H88.3452L88.1052 47.272H87.9372C87.5212 47.944 86.9692 48.448 86.2812 48.784C85.6092 49.12 84.8652 49.288 84.0492 49.288ZM84.7452 47.128C85.4812 47.128 86.0732 46.968 86.5212 46.648C86.9852 46.312 87.3292 45.832 87.5532 45.208C87.7772 44.568 87.8892 43.792 87.8892 42.88V42.544C87.8892 41.776 87.8172 41.12 87.6732 40.576C87.5292 40.032 87.3212 39.592 87.0492 39.256C86.7772 38.904 86.4492 38.648 86.0652 38.488C85.6812 38.328 85.2492 38.248 84.7692 38.248C84.0332 38.248 83.4332 38.4 82.9692 38.704C82.5052 38.992 82.1612 39.448 81.9372 40.072C81.7292 40.696 81.6252 41.504 81.6252 42.496V42.928C81.6252 43.92 81.7372 44.728 81.9612 45.352C82.1852 45.96 82.5212 46.408 82.9692 46.696C83.4332 46.984 84.0252 47.128 84.7452 47.128ZM98.9556 49.288C97.6596 49.288 96.5716 49.056 95.6916 48.592C94.8276 48.112 94.1716 47.384 93.7236 46.408C93.2756 45.432 93.0516 44.192 93.0516 42.688C93.0516 41.168 93.2756 39.928 93.7236 38.968C94.1716 37.992 94.8356 37.272 95.7156 36.808C96.5956 36.328 97.6916 36.088 99.0036 36.088C100.204 36.088 101.204 36.32 102.004 36.784C102.82 37.232 103.436 37.92 103.852 38.848C104.268 39.776 104.476 40.944 104.476 42.352V43.312H95.6196C95.6516 44.208 95.7876 44.96 96.0276 45.568C96.2676 46.16 96.6276 46.6 97.1076 46.888C97.6036 47.16 98.2276 47.296 98.9796 47.296C99.4436 47.296 99.8596 47.24 100.228 47.128C100.596 47 100.908 46.824 101.164 46.6C101.42 46.36 101.62 46.08 101.764 45.76C101.908 45.424 101.98 45.048 101.98 44.632H104.428C104.428 45.384 104.3 46.048 104.044 46.624C103.788 47.2 103.412 47.688 102.916 48.088C102.436 48.472 101.86 48.768 101.188 48.976C100.516 49.184 99.7716 49.288 98.9556 49.288ZM95.6676 41.488H101.86C101.86 40.864 101.788 40.344 101.644 39.928C101.516 39.496 101.324 39.144 101.068 38.872C100.812 38.6 100.508 38.408 100.156 38.296C99.8036 38.168 99.4036 38.104 98.9556 38.104C98.2836 38.104 97.7076 38.224 97.2276 38.464C96.7636 38.704 96.4036 39.08 96.1476 39.592C95.8916 40.088 95.7316 40.72 95.6676 41.488ZM107.133 49V36.376H109.197L109.413 38.416H109.557C109.701 38.016 109.885 37.64 110.109 37.288C110.349 36.936 110.653 36.648 111.021 36.424C111.405 36.2 111.869 36.088 112.413 36.088C112.669 36.088 112.893 36.112 113.085 36.16C113.293 36.208 113.453 36.248 113.565 36.28V38.632H112.725C112.213 38.632 111.757 38.712 111.357 38.872C110.973 39.032 110.645 39.272 110.373 39.592C110.117 39.896 109.925 40.272 109.797 40.72C109.685 41.168 109.629 41.672 109.629 42.232V49H107.133Z" fill="#D1D5FC"/>
  <path fill-rule="evenodd" clip-rule="evenodd" d="M135.343 33.9291L141.707 40.2931C142.098 40.6836 142.098 41.3168 141.707 41.7073L135.343 48.0713C134.953 48.4618 134.319 48.4618 133.929 48.0713C133.538 47.6807 133.538 47.0476 133.929 46.657L138.586 42.0002H128C127.448 42.0002 127 41.5525 127 41.0002C127 40.4479 127.448 40.0002 128 40.0002H138.586L133.929 35.3433C133.538 34.9528 133.538 34.3196 133.929 33.9291C134.319 33.5386 134.953 33.5386 135.343 33.9291Z" fill="#D1D5FC"/>
  <defs>
    <linearGradient id="paint0_linear_65_616" x1="12.5" y1="-23" x2="208" y2="277.5" gradientUnits="userSpaceOnUse">
      <stop stop-color="#01020E" stop-opacity="0"/>
      <stop offset="1" stop-color="#BC901E"/>
    </linearGradient>
  </defs>
</svg>
