<svg width="255" height="255" viewBox="0 0 255 255" fill="none" xmlns="http://www.w3.org/2000/svg">
  <rect width="255" height="255" rx="40" fill="url(#paint0_linear_65_608)" fill-opacity="0.2"/>
  <mask id="mask0_65_608" style="mask-type:alpha" maskUnits="userSpaceOnUse" x="0" y="0" width="255" height="255">
    <rect width="255" height="255" rx="40" fill="#EBEBEB"/>
  </mask>
  <g mask="url(#mask0_65_608)">
    <path d="M30.8567 298C19.911 295.144 10.6996 287.282 6.28205 276.604C12.3791 285.866 20.8873 293.258 30.8567 298Z" fill="#DA5922"/>
    <path d="M106.984 288.556L139.413 283.171C159.335 279.863 172.806 261.015 169.501 241.073L154.012 147.617C150.707 127.675 131.877 114.191 111.954 117.499L18.5875 133.004C-1.33528 136.312 -14.8065 155.16 -11.5013 175.102L-9.58462 186.666C4.16051 172.128 22.3574 162.594 42.1255 159.574C89.0278 151.785 124.358 179.695 131.205 221.137C135.976 249.923 126.146 273.813 106.984 288.556Z" fill="#DA5922"/>
    <path d="M-6.03901 208.059L-1.22343 237.113C3.15727 211.213 24.5641 196.245 44.0738 193.218C68.4718 189.458 90.2755 204.718 93.8928 225.517C97.1856 245.384 91.4459 261.332 69.6115 268.674C57.716 272.749 37.3841 268.678 35.0903 250.05C33.9585 240.442 40.4648 233.822 48.9976 232.802C42.5248 245.354 54.8918 251.691 62.4101 248.74C66.1722 247.225 69.2936 244.451 71.2436 240.892C73.1935 237.333 73.8516 233.208 73.1058 229.217C71.9423 222.197 63.4535 211.939 47.1455 215.087C26.9756 218.918 16.644 235.636 19.1864 253.755C22.4495 276.478 46.1673 287.981 68.0378 284.533C100.056 279.635 115.622 255.466 110.399 224.72C105.78 196.852 78.9037 173.773 45.2078 178.17C21.2941 181.304 4.24302 193.094 -6.03901 208.059Z" fill="#DA5922"/>
  </g>
  <path d="M29.944 49V32.536H32.632V39.424H40.984V32.536H43.672V49H40.984V41.728H32.632V49H29.944ZM52.729 49.288C51.417 49.288 50.305 49.056 49.393 48.592C48.497 48.112 47.817 47.384 47.353 46.408C46.905 45.432 46.681 44.192 46.681 42.688C46.681 41.168 46.905 39.928 47.353 38.968C47.817 37.992 48.497 37.272 49.393 36.808C50.305 36.328 51.417 36.088 52.729 36.088C54.073 36.088 55.193 36.328 56.089 36.808C56.985 37.272 57.657 37.992 58.105 38.968C58.569 39.928 58.801 41.168 58.801 42.688C58.801 44.192 58.569 45.432 58.105 46.408C57.657 47.384 56.985 48.112 56.089 48.592C55.193 49.056 54.073 49.288 52.729 49.288ZM52.729 47.224C53.529 47.224 54.185 47.072 54.697 46.768C55.209 46.448 55.585 45.968 55.825 45.328C56.081 44.688 56.209 43.88 56.209 42.904V42.472C56.209 41.496 56.081 40.688 55.825 40.048C55.585 39.408 55.209 38.936 54.697 38.632C54.185 38.312 53.529 38.152 52.729 38.152C51.945 38.152 51.297 38.312 50.785 38.632C50.273 38.936 49.889 39.408 49.633 40.048C49.393 40.688 49.273 41.496 49.273 42.472V42.904C49.273 43.88 49.393 44.688 49.633 45.328C49.889 45.968 50.273 46.448 50.785 46.768C51.297 47.072 51.945 47.224 52.729 47.224ZM65.4252 49.288C64.2092 49.288 63.2252 48.968 62.4732 48.328C61.7212 47.672 61.3452 46.56 61.3452 44.992V36.376H63.8412V44.608C63.8412 45.088 63.8972 45.488 64.0092 45.808C64.1372 46.128 64.3132 46.384 64.5372 46.576C64.7612 46.768 65.0252 46.904 65.3292 46.984C65.6332 47.064 65.9692 47.104 66.3372 47.104C66.9132 47.104 67.4332 46.968 67.8972 46.696C68.3772 46.408 68.7612 46.016 69.0492 45.52C69.3372 45.008 69.4812 44.424 69.4812 43.768V36.376H71.9772V49H69.9372L69.7212 47.2H69.5532C69.2492 47.664 68.8892 48.048 68.4732 48.352C68.0572 48.656 67.5932 48.888 67.0812 49.048C66.5852 49.208 66.0332 49.288 65.4252 49.288ZM79.6636 49.288C78.6396 49.288 77.7516 49.056 76.9996 48.592C76.2476 48.128 75.6636 47.408 75.2476 46.432C74.8476 45.456 74.6476 44.192 74.6476 42.64C74.6476 41.12 74.8556 39.88 75.2716 38.92C75.6876 37.96 76.2636 37.248 76.9996 36.784C77.7356 36.32 78.5836 36.088 79.5436 36.088C80.1036 36.088 80.6236 36.152 81.1036 36.28C81.5836 36.408 82.0076 36.608 82.3756 36.88C82.7596 37.152 83.0796 37.496 83.3356 37.912H83.5036V31.648H85.9996V49H83.9596L83.7196 47.272H83.5516C83.1356 47.944 82.5836 48.448 81.8956 48.784C81.2236 49.12 80.4796 49.288 79.6636 49.288ZM80.3596 47.128C81.0956 47.128 81.6876 46.968 82.1356 46.648C82.5996 46.312 82.9436 45.832 83.1676 45.208C83.3916 44.568 83.5036 43.792 83.5036 42.88V42.544C83.5036 41.776 83.4316 41.12 83.2876 40.576C83.1436 40.032 82.9356 39.592 82.6636 39.256C82.3916 38.904 82.0636 38.648 81.6796 38.488C81.2956 38.328 80.8636 38.248 80.3836 38.248C79.6476 38.248 79.0476 38.4 78.5836 38.704C78.1196 38.992 77.7756 39.448 77.5516 40.072C77.3436 40.696 77.2396 41.504 77.2396 42.496V42.928C77.2396 43.92 77.3516 44.728 77.5756 45.352C77.7996 45.96 78.1356 46.408 78.5836 46.696C79.0476 46.984 79.6396 47.128 80.3596 47.128ZM89.338 34.192V31.648H91.834V34.192H89.338ZM89.338 49V36.376H91.834V49H89.338ZM95.1767 49V36.376H97.2407L97.4567 38.176H97.6247C97.9287 37.712 98.2887 37.328 98.7047 37.024C99.1207 36.72 99.5767 36.488 100.073 36.328C100.585 36.168 101.145 36.088 101.753 36.088C102.553 36.088 103.257 36.232 103.865 36.52C104.473 36.792 104.945 37.24 105.281 37.864C105.633 38.488 105.809 39.328 105.809 40.384V49H103.313V40.768C103.313 40.288 103.249 39.888 103.121 39.568C103.009 39.248 102.841 38.992 102.617 38.8C102.393 38.608 102.129 38.472 101.825 38.392C101.521 38.312 101.185 38.272 100.817 38.272C100.241 38.272 99.7127 38.416 99.2327 38.704C98.7687 38.976 98.3927 39.36 98.1047 39.856C97.8167 40.352 97.6727 40.936 97.6727 41.608V49H95.1767ZM109.055 34.192V31.648H111.551V34.192H109.055ZM109.055 49V36.376H111.551V49H109.055Z" fill="#D1D5FC"/>
  <path fill-rule="evenodd" clip-rule="evenodd" d="M135.343 33.9291L141.707 40.2931C142.098 40.6836 142.098 41.3168 141.707 41.7073L135.343 48.0713C134.953 48.4618 134.319 48.4618 133.929 48.0713C133.538 47.6807 133.538 47.0476 133.929 46.657L138.586 42.0002H128C127.448 42.0002 127 41.5525 127 41.0002C127 40.4479 127.448 40.0002 128 40.0002H138.586L133.929 35.3433C133.538 34.9528 133.538 34.3196 133.929 33.9291C134.319 33.5386 134.953 33.5386 135.343 33.9291Z" fill="#D1D5FC"/>
  <defs>
    <linearGradient id="paint0_linear_65_608" x1="12.5" y1="-23" x2="208" y2="277.5" gradientUnits="userSpaceOnUse">
      <stop stop-color="#01020E" stop-opacity="0"/>
      <stop offset="1" stop-color="#69471E"/>
    </linearGradient>
  </defs>
</svg>
