<svg width="255" height="255" viewBox="0 0 255 255" fill="none" xmlns="http://www.w3.org/2000/svg">
  <rect width="255" height="255" rx="40" fill="url(#paint0_linear_65_600)" fill-opacity="0.2"/>
  <mask id="mask0_65_600" style="mask-type:alpha" maskUnits="userSpaceOnUse" x="0" y="0" width="255" height="255">
    <rect width="255" height="255" rx="40" fill="#EBEBEB"/>
  </mask>
  <g mask="url(#mask0_65_600)">
    <path d="M78.3683 127C31.2075 126.95 -7.02124 165.335 -6.99999 211.83C-6.97874 259.133 31.7812 296.865 77.8442 297C124.134 297.142 163.248 259.416 163 212.014C162.936 200.22 159.246 173.97 149.967 174.643C135.942 175.67 134.674 203.826 133.13 212.942C130.176 230.367 123.595 248.925 112.213 262.455C98.8958 279.164 78.9421 288.195 57.94 284.824C32.7942 280.829 16.1979 261.605 10.6233 247.983C5.28959 235.779 3.29209 218.503 10.1275 203.188C18.3442 183.596 36.5767 170.378 54.6108 163.635C68.82 157.777 83.6738 155.482 92.5562 153.895C110.378 150.354 112.779 143.533 112.489 138.673C112.382 136.888 110.675 133.545 106.928 131.994C99.4625 128.905 86.9817 127.007 78.3683 127Z" fill="#DBE3FF"/>
    <path d="M114.479 136.506C115.464 139.325 115.103 142.527 113.431 145.403C111.129 149.37 106.546 152.84 99.9937 154.54C88.4054 157.572 78.9137 158.465 69.2521 161.34C59.9587 164.103 45.19 168.551 31.5971 179.417C29.6987 185.381 29.1817 192.819 28.9833 198.273C30.0458 233.789 61.2621 261.201 93.9375 259.77C99.9796 259.508 107.545 257.922 114.564 254.954C118.537 249.004 121.832 242.63 124.389 235.949L124.403 235.935V235.921C127.406 228.625 128.695 222.916 130.07 216.137C132.336 205.052 131.5 195.737 137.238 182.435C139.016 178.312 142.267 174.551 146.149 172.9C147.92 172.157 149.846 171.958 151.745 172.39C145.44 154.887 129.673 141.748 114.479 136.506Z" fill="#2244BC"/>
  </g>
  <path d="M37.072 49.288C35.392 49.288 33.96 48.992 32.776 48.4C31.608 47.792 30.712 46.856 30.088 45.592C29.464 44.328 29.152 42.72 29.152 40.768C29.152 37.888 29.848 35.752 31.24 34.36C32.648 32.952 34.6 32.248 37.096 32.248C38.472 32.248 39.704 32.48 40.792 32.944C41.896 33.408 42.76 34.104 43.384 35.032C44.024 35.944 44.344 37.112 44.344 38.536H41.608C41.608 37.656 41.424 36.92 41.056 36.328C40.688 35.736 40.16 35.288 39.472 34.984C38.8 34.68 38.016 34.528 37.12 34.528C36 34.528 35.048 34.752 34.264 35.2C33.496 35.632 32.912 36.288 32.512 37.168C32.128 38.048 31.936 39.168 31.936 40.528V41.056C31.936 42.416 32.128 43.536 32.512 44.416C32.912 45.296 33.496 45.952 34.264 46.384C35.032 46.8 35.984 47.008 37.12 47.008C38.048 47.008 38.856 46.864 39.544 46.576C40.232 46.272 40.76 45.824 41.128 45.232C41.512 44.64 41.704 43.904 41.704 43.024H44.344C44.344 44.448 44.024 45.624 43.384 46.552C42.76 47.48 41.896 48.168 40.792 48.616C39.704 49.064 38.464 49.288 37.072 49.288ZM47.1186 34.192V31.648H49.6146V34.192H47.1186ZM47.1186 49V36.376H49.6146V49H47.1186ZM52.9574 49V36.376H55.0214L55.2374 38.176H55.4054C55.7094 37.712 56.0694 37.328 56.4854 37.024C56.9014 36.72 57.3574 36.488 57.8534 36.328C58.3654 36.168 58.9254 36.088 59.5334 36.088C60.3334 36.088 61.0374 36.232 61.6454 36.52C62.2534 36.792 62.7254 37.24 63.0614 37.864C63.4134 38.488 63.5894 39.328 63.5894 40.384V49H61.0934V40.768C61.0934 40.288 61.0294 39.888 60.9014 39.568C60.7894 39.248 60.6214 38.992 60.3974 38.8C60.1734 38.608 59.9094 38.472 59.6054 38.392C59.3014 38.312 58.9654 38.272 58.5974 38.272C58.0214 38.272 57.4934 38.416 57.0134 38.704C56.5494 38.976 56.1734 39.36 55.8854 39.856C55.5974 40.352 55.4534 40.936 55.4534 41.608V49H52.9574ZM72.0672 49.288C70.7712 49.288 69.6832 49.056 68.8032 48.592C67.9392 48.112 67.2832 47.384 66.8352 46.408C66.3872 45.432 66.1632 44.192 66.1632 42.688C66.1632 41.168 66.3872 39.928 66.8352 38.968C67.2832 37.992 67.9472 37.272 68.8272 36.808C69.7072 36.328 70.8032 36.088 72.1152 36.088C73.3152 36.088 74.3152 36.32 75.1152 36.784C75.9312 37.232 76.5472 37.92 76.9632 38.848C77.3792 39.776 77.5872 40.944 77.5872 42.352V43.312H68.7312C68.7632 44.208 68.8992 44.96 69.1392 45.568C69.3792 46.16 69.7392 46.6 70.2192 46.888C70.7152 47.16 71.3392 47.296 72.0912 47.296C72.5552 47.296 72.9712 47.24 73.3392 47.128C73.7072 47 74.0192 46.824 74.2752 46.6C74.5312 46.36 74.7312 46.08 74.8752 45.76C75.0192 45.424 75.0912 45.048 75.0912 44.632H77.5392C77.5392 45.384 77.4112 46.048 77.1552 46.624C76.8992 47.2 76.5232 47.688 76.0272 48.088C75.5472 48.472 74.9712 48.768 74.2992 48.976C73.6272 49.184 72.8832 49.288 72.0672 49.288ZM68.7792 41.488H74.9712C74.9712 40.864 74.8992 40.344 74.7552 39.928C74.6272 39.496 74.4352 39.144 74.1792 38.872C73.9232 38.6 73.6192 38.408 73.2672 38.296C72.9152 38.168 72.5152 38.104 72.0672 38.104C71.3952 38.104 70.8192 38.224 70.3392 38.464C69.8752 38.704 69.5152 39.08 69.2592 39.592C69.0032 40.088 68.8432 40.72 68.7792 41.488ZM80.2442 49V36.376H82.3082L82.5242 38.176H82.6922C82.9802 37.712 83.3082 37.328 83.6762 37.024C84.0602 36.72 84.4842 36.488 84.9482 36.328C85.4282 36.168 85.9402 36.088 86.4843 36.088C87.2682 36.088 87.9483 36.248 88.5243 36.568C89.1163 36.888 89.5643 37.424 89.8683 38.176H90.0363C90.3243 37.728 90.6603 37.352 91.0443 37.048C91.4282 36.728 91.8602 36.488 92.3403 36.328C92.8363 36.168 93.3643 36.088 93.9243 36.088C94.6762 36.088 95.3403 36.224 95.9163 36.496C96.4923 36.752 96.9483 37.192 97.2842 37.816C97.6203 38.424 97.7883 39.24 97.7883 40.264V49H95.2922V40.72C95.2922 40.24 95.2362 39.848 95.1243 39.544C95.0122 39.224 94.8602 38.976 94.6683 38.8C94.4763 38.608 94.2443 38.472 93.9723 38.392C93.7003 38.312 93.4043 38.272 93.0843 38.272C92.5563 38.272 92.0842 38.416 91.6683 38.704C91.2523 38.976 90.9163 39.36 90.6603 39.856C90.4043 40.352 90.2762 40.936 90.2762 41.608V49H87.7802V40.72C87.7802 40.24 87.7242 39.848 87.6122 39.544C87.5002 39.224 87.3482 38.976 87.1562 38.8C86.9643 38.608 86.7322 38.472 86.4602 38.392C86.1882 38.312 85.9002 38.272 85.5963 38.272C85.0682 38.272 84.5882 38.416 84.1562 38.704C83.7242 38.976 83.3802 39.36 83.1242 39.856C82.8682 40.352 82.7402 40.936 82.7402 41.608V49H80.2442ZM104.205 49.288C103.805 49.288 103.373 49.24 102.909 49.144C102.445 49.048 102.005 48.872 101.589 48.616C101.189 48.36 100.861 48.008 100.605 47.56C100.349 47.096 100.221 46.496 100.221 45.76C100.221 44.896 100.421 44.184 100.821 43.624C101.221 43.064 101.781 42.624 102.501 42.304C103.221 41.984 104.077 41.76 105.069 41.632C106.077 41.504 107.173 41.44 108.357 41.44V40.192C108.357 39.776 108.285 39.408 108.141 39.088C108.013 38.768 107.765 38.52 107.397 38.344C107.045 38.168 106.533 38.08 105.861 38.08C105.189 38.08 104.661 38.168 104.277 38.344C103.909 38.504 103.645 38.712 103.485 38.968C103.341 39.208 103.269 39.472 103.269 39.76V40.12H100.869C100.853 40.04 100.845 39.96 100.845 39.88C100.845 39.8 100.845 39.704 100.845 39.592C100.845 38.84 101.053 38.208 101.469 37.696C101.901 37.168 102.501 36.768 103.269 36.496C104.037 36.224 104.925 36.088 105.933 36.088C107.021 36.088 107.925 36.248 108.645 36.568C109.381 36.872 109.933 37.312 110.301 37.888C110.669 38.464 110.853 39.16 110.853 39.976V46.384C110.853 46.688 110.925 46.904 111.069 47.032C111.229 47.16 111.413 47.224 111.621 47.224H112.485V48.904C112.293 48.984 112.053 49.064 111.765 49.144C111.477 49.224 111.141 49.264 110.757 49.264C110.325 49.264 109.957 49.184 109.653 49.024C109.365 48.88 109.125 48.672 108.933 48.4C108.757 48.112 108.637 47.792 108.573 47.44H108.429C108.141 47.808 107.789 48.136 107.373 48.424C106.973 48.696 106.509 48.904 105.981 49.048C105.453 49.208 104.861 49.288 104.205 49.288ZM104.901 47.224C105.397 47.224 105.853 47.152 106.269 47.008C106.701 46.848 107.069 46.632 107.373 46.36C107.677 46.072 107.917 45.736 108.093 45.352C108.269 44.952 108.357 44.52 108.357 44.056V43.216C107.253 43.216 106.285 43.28 105.453 43.408C104.621 43.536 103.973 43.776 103.509 44.128C103.045 44.464 102.813 44.936 102.813 45.544C102.813 45.912 102.893 46.224 103.053 46.48C103.213 46.72 103.453 46.904 103.773 47.032C104.093 47.16 104.469 47.224 104.901 47.224ZM125.946 49V45.136H118.482V43.072C119.138 41.952 119.738 40.824 120.282 39.688C120.826 38.552 121.322 37.368 121.77 36.136C122.218 34.888 122.594 33.592 122.898 32.248H125.514C125.306 33.112 125.042 34 124.722 34.912C124.418 35.808 124.074 36.688 123.69 37.552C123.322 38.416 122.954 39.216 122.586 39.952C122.218 40.688 121.874 41.328 121.554 41.872C121.234 42.416 120.978 42.816 120.786 43.072H125.946V38.344C126.058 38.072 126.17 37.784 126.282 37.48C126.41 37.16 126.53 36.84 126.642 36.52C126.754 36.184 126.858 35.864 126.954 35.56C127.05 35.256 127.138 34.968 127.218 34.696H128.442V43.072H130.554V45.136H128.442V49H125.946ZM133.42 49V32.536H139.78C141.476 32.536 142.924 32.832 144.124 33.424C145.324 34 146.244 34.896 146.884 36.112C147.54 37.312 147.868 38.864 147.868 40.768C147.868 42.656 147.54 44.208 146.884 45.424C146.244 46.64 145.324 47.544 144.124 48.136C142.924 48.712 141.476 49 139.78 49H133.42ZM136.108 46.696H139.756C140.604 46.696 141.356 46.584 142.012 46.36C142.684 46.136 143.244 45.792 143.692 45.328C144.156 44.864 144.5 44.28 144.724 43.576C144.964 42.856 145.084 42.008 145.084 41.032V40.528C145.084 39.536 144.964 38.688 144.724 37.984C144.5 37.264 144.156 36.672 143.692 36.208C143.244 35.744 142.684 35.4 142.012 35.176C141.356 34.952 140.604 34.84 139.756 34.84H136.108V46.696Z" fill="#D1D5FC"/>
  <path fill-rule="evenodd" clip-rule="evenodd" d="M171.343 33.9291L177.707 40.2931C178.098 40.6836 178.098 41.3168 177.707 41.7073L171.343 48.0713C170.953 48.4618 170.319 48.4618 169.929 48.0713C169.538 47.6807 169.538 47.0476 169.929 46.657L174.586 42.0002H164C163.448 42.0002 163 41.5525 163 41.0002C163 40.4479 163.448 40.0002 164 40.0002H174.586L169.929 35.3433C169.538 34.9528 169.538 34.3196 169.929 33.9291C170.319 33.5386 170.953 33.5386 171.343 33.9291Z" fill="#D1D5FC"/>
  <defs>
    <linearGradient id="paint0_linear_65_600" x1="12.5" y1="-23" x2="208" y2="277.5" gradientUnits="userSpaceOnUse">
      <stop stop-color="#01020E" stop-opacity="0"/>
      <stop offset="1" stop-color="#1E2F69"/>
    </linearGradient>
  </defs>
</svg>
