<svg width="18" height="14" viewBox="0 0 18 14" fill="none" xmlns="http://www.w3.org/2000/svg">
  <path d="M14.8068 1.43991C13.6985 0.923248 12.4985 0.548248 11.2485 0.331581C11.2375 0.331231 11.2266 0.333288 11.2165 0.337607C11.2065 0.341926 11.1974 0.348403 11.1901 0.356581C11.0401 0.631581 10.8651 0.989915 10.7485 1.26491C9.42264 1.06491 8.0743 1.06491 6.74847 1.26491C6.6318 0.981581 6.4568 0.631581 6.29847 0.356581C6.29014 0.339915 6.26514 0.331581 6.24014 0.331581C4.99014 0.548248 3.79847 0.923248 2.6818 1.43991C2.67347 1.43991 2.66514 1.44825 2.6568 1.45658C0.390137 4.84825 -0.234863 8.14825 0.0734701 11.4149C0.0734701 11.4316 0.0818034 11.4482 0.0984701 11.4566C1.59847 12.5566 3.04014 13.2232 4.46514 13.6649C4.49014 13.6732 4.51514 13.6649 4.52347 13.6482C4.8568 13.1899 5.1568 12.7066 5.41514 12.1982C5.4318 12.1649 5.41514 12.1316 5.3818 12.1232C4.9068 11.9399 4.4568 11.7232 4.01514 11.4732C3.9818 11.4566 3.9818 11.4066 4.0068 11.3816C4.09847 11.3149 4.19014 11.2399 4.2818 11.1732C4.29847 11.1566 4.32347 11.1566 4.34014 11.1649C7.2068 12.4732 10.2985 12.4732 13.1318 11.1649C13.1485 11.1566 13.1735 11.1566 13.1901 11.1732C13.2818 11.2482 13.3735 11.3149 13.4651 11.3899C13.4985 11.4149 13.4985 11.4649 13.4568 11.4816C13.0235 11.7399 12.5651 11.9482 12.0901 12.1316C12.0568 12.1399 12.0485 12.1816 12.0568 12.2066C12.3235 12.7149 12.6235 13.1982 12.9485 13.6566C12.9735 13.6649 12.9985 13.6732 13.0235 13.6649C14.4568 13.2232 15.8985 12.5566 17.3985 11.4566C17.4151 11.4482 17.4235 11.4316 17.4235 11.4149C17.7901 7.63991 16.8151 4.36491 14.8401 1.45658C14.8318 1.44825 14.8235 1.43991 14.8068 1.43991ZM5.84847 9.42325C4.99014 9.42325 4.27347 8.63158 4.27347 7.65658C4.27347 6.68158 4.97347 5.88991 5.84847 5.88991C6.7318 5.88991 7.4318 6.68991 7.42347 7.65658C7.42347 8.63158 6.72347 9.42325 5.84847 9.42325ZM11.6568 9.42325C10.7985 9.42325 10.0818 8.63158 10.0818 7.65658C10.0818 6.68158 10.7818 5.88991 11.6568 5.88991C12.5401 5.88991 13.2401 6.68991 13.2318 7.65658C13.2318 8.63158 12.5401 9.42325 11.6568 9.42325Z" fill="#010E02"/>
</svg>
