<svg width="12" height="14" viewBox="0 0 12 14" fill="none" xmlns="http://www.w3.org/2000/svg">
  <path d="M11.8405 2.84981L9.11318 0.1575C9.06249 0.107512 9.00232 0.0678742 8.9361 0.0408498C8.86989 0.0138254 8.79892 -5.54539e-05 8.72727 1.66491e-07H3.27273C2.9834 1.66491e-07 2.70592 0.113461 2.50134 0.315424C2.29675 0.517386 2.18182 0.791305 2.18182 1.07692V2.15385H1.09091C0.801582 2.15385 0.524105 2.26731 0.31952 2.46927C0.114935 2.67123 0 2.94515 0 3.23077V12.9231C0 13.2087 0.114935 13.4826 0.31952 13.6846C0.524105 13.8865 0.801582 14 1.09091 14H8.72727C9.0166 14 9.29408 13.8865 9.49866 13.6846C9.70325 13.4826 9.81818 13.2087 9.81818 12.9231V11.8462H10.9091C11.1984 11.8462 11.4759 11.7327 11.6805 11.5307C11.8851 11.3288 12 11.0548 12 10.7692V3.23077C12.0001 3.16004 11.986 3.08999 11.9586 3.02462C11.9312 2.95925 11.8911 2.89985 11.8405 2.84981ZM6.54545 11.3077H3.27273C3.12806 11.3077 2.98933 11.251 2.88703 11.15C2.78474 11.049 2.72727 10.912 2.72727 10.7692C2.72727 10.6264 2.78474 10.4895 2.88703 10.3885C2.98933 10.2875 3.12806 10.2308 3.27273 10.2308H6.54545C6.69012 10.2308 6.82886 10.2875 6.93115 10.3885C7.03344 10.4895 7.09091 10.6264 7.09091 10.7692C7.09091 10.912 7.03344 11.049 6.93115 11.15C6.82886 11.251 6.69012 11.3077 6.54545 11.3077ZM6.54545 9.15385H3.27273C3.12806 9.15385 2.98933 9.09712 2.88703 8.99614C2.78474 8.89515 2.72727 8.75819 2.72727 8.61539C2.72727 8.47258 2.78474 8.33562 2.88703 8.23463C2.98933 8.13365 3.12806 8.07692 3.27273 8.07692H6.54545C6.69012 8.07692 6.82886 8.13365 6.93115 8.23463C7.03344 8.33562 7.09091 8.47258 7.09091 8.61539C7.09091 8.75819 7.03344 8.89515 6.93115 8.99614C6.82886 9.09712 6.69012 9.15385 6.54545 9.15385ZM10.9091 10.7692H9.81818V5.38462C9.81824 5.31388 9.80418 5.24383 9.7768 5.17847C9.74943 5.1131 9.70927 5.0537 9.65864 5.00365L6.93136 2.31135C6.88067 2.26136 6.8205 2.22172 6.75428 2.1947C6.68807 2.16767 6.61711 2.15379 6.54545 2.15385H3.27273V1.07692H8.50159L10.9091 3.45356V10.7692Z" fill="#06210a"/>
</svg>
